+ filenameToUse=/home/horvathandras/vatic/vatic/public/videouploads/DJI_0433_ragas_vaskut_20180826_diffuz_napraforgo_T4.avi
+ filenameNoDot=DJI_0433_ragas_vaskut_20180826_diffuz_napraforgo_T4
+ FullUploadPath=/home/horvathandras/vatic/vatic/public/videouploads/DJI_0433_ragas_vaskut_20180826_diffuz_napraforgo_T4.avi
+ VideoDataDir=/home/horvathandras/vatic/vatic/videos
+ AvailableObjectTypes='PozitívROI NegatívROI Túrás ~Friss ~1-2Hetes ~Régebbi ~Egyéb1 ~Egyéb2 ~Egyéb3 Rágás ~Friss ~1-2Hetes ~Régebbi ~Egyéb1 ~Egyéb2 ~Egyéb3 Törés ~Friss ~1-2Hetes ~Régebbi ~Egyéb1 ~Egyéb2 ~Egyéb3 Taposás ~Friss ~1-2Hetes ~Régebbi ~Egyéb1 ~Egyéb2 ~Egyéb3 EgészségesNövény Egyéb1 Egyéb2 Egyéb3 Egyéb4 Egyéb5 Bizonytalan Művelőút Gktaposás Vetőhiba Széldöntés Jégkár Belvíz Aszály Erózió EgyszikűGyom KétszikűGyom EgyébNövvédelmiPR'
++ dirname /home/horvathandras/vatic/vatic/vatic_publisher.sh
+ cd /home/horvathandras/vatic/vatic
+ touch /home/horvathandras/vatic/vatic/public/videouploads/DJI_0433_ragas_vaskut_20180826_diffuz_napraforgo_T4.avi
+ chmod 744 /home/horvathandras/vatic/vatic/public/videouploads/DJI_0433_ragas_vaskut_20180826_diffuz_napraforgo_T4.avi
+ mkdir /home/horvathandras/vatic/vatic/videos/DJI_0433_ragas_vaskut_20180826_diffuz_napraforgo_T4
+ turkic extract /home/horvathandras/vatic/vatic/public/videouploads/DJI_0433_ragas_vaskut_20180826_diffuz_napraforgo_T4.avi /home/horvathandras/vatic/vatic/videos/DJI_0433_ragas_vaskut_20180826_diffuz_napraforgo_T4 --no-resize
ffmpeg version 2.8.14-0ubuntu0.16.04.1 Copyright (c) 2000-2018 the FFmpeg developers
  built with gcc 5.4.0 (Ubuntu 5.4.0-6ubuntu1~16.04.9) 20160609
  configuration: --prefix=/usr --extra-version=0ubuntu0.16.04.1 --build-suffix=-ffmpeg --toolchain=hardened --libdir=/usr/lib/x86_64-linux-gnu --incdir=/usr/include/x86_64-linux-gnu --cc=cc --cxx=g++ --enable-gpl --enable-shared --disable-stripping --disable-decoder=libopenjpeg --disable-decoder=libschroedinger --enable-avresample --enable-avisynth --enable-gnutls --enable-ladspa --enable-libass --enable-libbluray --enable-libbs2b --enable-libcaca --enable-libcdio --enable-libflite --enable-libfontconfig --enable-libfreetype --enable-libfribidi --enable-libgme --enable-libgsm --enable-libmodplug --enable-libmp3lame --enable-libopenjpeg --enable-libopus --enable-libpulse --enable-librtmp --enable-libschroedinger --enable-libshine --enable-libsnappy --enable-libsoxr --enable-libspeex --enable-libssh --enable-libtheora --enable-libtwolame --enable-libvorbis --enable-libvpx --enable-libwavpack --enable-libwebp --enable-libx265 --enable-libxvid --enable-libzvbi --enable-openal --enable-opengl --enable-x11grab --enable-libdc1394 --enable-libiec61883 --enable-libzmq --enable-frei0r --enable-libx264 --enable-libopencv
  libavutil      54. 31.100 / 54. 31.100
  libavcodec     56. 60.100 / 56. 60.100
  libavformat    56. 40.101 / 56. 40.101
  libavdevice    56.  4.100 / 56.  4.100
  libavfilter     5. 40.101 /  5. 40.101
  libavresample   2.  1.  0 /  2.  1.  0
  libswscale      3.  1.101 /  3.  1.101
  libswresample   1.  2.101 /  1.  2.101
  libpostproc    53.  3.100 / 53.  3.100
Input #0, mov,mp4,m4a,3gp,3g2,mj2, from '/home/horvathandras/vatic/vatic/public/videouploads/DJI_0433_ragas_vaskut_20180826_diffuz_napraforgo_T4.avi':
  Metadata:
    major_brand     : qt  
    minor_version   : 537986816
    compatible_brands: qt  
    creation_time   : 2018-08-26 15:10:58
    location        : +46.091451+18.981010+30.300
    location-{    : +46.091451+18.981010+30.300
    comment         : DE=None, Mode=P, DSW=0001
  Duration: 00:00:08.14, start: 0.000000, bitrate: 102438 kb/s
    Stream #0:0(eng): Video: h264 (High) (avc1 / 0x31637661), yuv420p(tv, bt709), 4096x2160 [SAR 1:1 DAR 256:135], 102133 kb/s, 50 fps, 50 tbr, 50k tbn, 100 tbc (default)
    Metadata:
      creation_time   : 2018-08-26 15:10:58
      handler_name    : DJI.AVC
      encoder         : AVC encoder
    Stream #0:1(eng): Data: none (priv / 0x76697270), 269 kb/s
    Metadata:
      creation_time   : 2018-08-26 15:10:58
      handler_name    : DJI.Meta
Please use -b:a or -b:v, -b is ambiguous
[swscaler @ 0xf59740] deprecated pixel format used, make sure you did set range correctly
Output #0, image2, to '/tmp/pyvision-ffmpeg-465194657/%d.jpg':
  Metadata:
    major_brand     : qt  
    minor_version   : 537986816
    compatible_brands: qt  
    comment         : DE=None, Mode=P, DSW=0001
    location        : +46.091451+18.981010+30.300
    location-{    : +46.091451+18.981010+30.300
    encoder         : Lavf56.40.101
    Stream #0:0(eng): Video: mjpeg, yuvj420p(pc), 4096x2160 [SAR 1:1 DAR 256:135], q=2-31, 10000 kb/s, 50 fps, 50 tbn, 50 tbc (default)
    Metadata:
      creation_time   : 2018-08-26 15:10:58
      handler_name    : DJI.AVC
      encoder         : Lavc56.60.100 mjpeg
Stream mapping:
  Stream #0:0 -> #0:0 (h264 (native) -> mjpeg (native))
Press [q] to stop, [?] for help
frame=    2 fps=0.0 q=14.4 size=N/A time=00:00:00.04 bitrate=N/A    frame=    7 fps=6.5 q=24.8 size=N/A time=00:00:00.14 bitrate=N/A    frame=   13 fps=8.0 q=24.8 size=N/A time=00:00:00.26 bitrate=N/A    frame=   19 fps=8.7 q=24.8 size=N/A time=00:00:00.38 bitrate=N/A    frame=   25 fps=9.1 q=24.8 size=N/A time=00:00:00.50 bitrate=N/A    frame=   31 fps=9.4 q=24.8 size=N/A time=00:00:00.62 bitrate=N/A    frame=   37 fps=9.6 q=24.8 size=N/A time=00:00:00.74 bitrate=N/A    frame=   43 fps=9.8 q=24.8 size=N/A time=00:00:00.86 bitrate=N/A    frame=   49 fps=9.9 q=24.8 size=N/A time=00:00:00.98 bitrate=N/A    frame=   55 fps= 10 q=24.8 size=N/A time=00:00:01.10 bitrate=N/A    frame=   61 fps= 10 q=24.8 size=N/A time=00:00:01.22 bitrate=N/A    frame=   67 fps= 10 q=24.8 size=N/A time=00:00:01.34 bitrate=N/A    frame=   73 fps= 10 q=24.8 size=N/A time=00:00:01.46 bitrate=N/A    frame=   79 fps= 10 q=24.8 size=N/A time=00:00:01.58 bitrate=N/A    frame=   85 fps= 10 q=24.8 size=N/A time=00:00:01.70 bitrate=N/A    frame=   91 fps= 10 q=24.8 size=N/A time=00:00:01.82 bitrate=N/A    frame=   97 fps= 10 q=24.8 size=N/A time=00:00:01.94 bitrate=N/A    frame=  103 fps= 10 q=24.8 size=N/A time=00:00:02.06 bitrate=N/A    frame=  109 fps= 10 q=24.8 size=N/A time=00:00:02.18 bitrate=N/A    frame=  115 fps= 10 q=24.8 size=N/A time=00:00:02.30 bitrate=N/A    frame=  121 fps= 10 q=24.8 size=N/A time=00:00:02.42 bitrate=N/A    frame=  127 fps= 10 q=24.8 size=N/A time=00:00:02.54 bitrate=N/A    frame=  133 fps= 11 q=24.8 size=N/A time=00:00:02.66 bitrate=N/A    frame=  139 fps= 11 q=24.8 size=N/A time=00:00:02.78 bitrate=N/A    frame=  145 fps= 11 q=24.8 size=N/A time=00:00:02.90 bitrate=N/A    frame=  151 fps= 11 q=24.8 size=N/A time=00:00:03.02 bitrate=N/A    frame=  157 fps= 11 q=24.8 size=N/A time=00:00:03.14 bitrate=N/A    frame=  163 fps= 11 q=24.8 size=N/A time=00:00:03.26 bitrate=N/A    frame=  169 fps= 11 q=24.8 size=N/A time=00:00:03.38 bitrate=N/A    frame=  175 fps= 11 q=24.8 size=N/A time=00:00:03.50 bitrate=N/A    frame=  181 fps= 11 q=24.8 size=N/A time=00:00:03.62 bitrate=N/A    frame=  187 fps= 11 q=24.8 size=N/A time=00:00:03.74 bitrate=N/A    frame=  193 fps= 11 q=24.8 size=N/A time=00:00:03.86 bitrate=N/A    frame=  199 fps= 11 q=24.8 size=N/A time=00:00:03.98 bitrate=N/A    frame=  205 fps= 11 q=24.8 size=N/A time=00:00:04.10 bitrate=N/A    frame=  211 fps= 11 q=24.8 size=N/A time=00:00:04.22 bitrate=N/A    frame=  217 fps= 11 q=24.8 size=N/A time=00:00:04.34 bitrate=N/A    frame=  223 fps= 11 q=24.8 size=N/A time=00:00:04.46 bitrate=N/A    frame=  229 fps= 11 q=24.8 size=N/A time=00:00:04.58 bitrate=N/A    frame=  235 fps= 11 q=24.8 size=N/A time=00:00:04.70 bitrate=N/A    frame=  241 fps= 11 q=24.8 size=N/A time=00:00:04.82 bitrate=N/A    frame=  247 fps= 11 q=24.8 size=N/A time=00:00:04.94 bitrate=N/A    frame=  253 fps= 11 q=24.8 size=N/A time=00:00:05.06 bitrate=N/A    frame=  259 fps= 11 q=24.8 size=N/A time=00:00:05.18 bitrate=N/A    frame=  265 fps= 11 q=24.8 size=N/A time=00:00:05.30 bitrate=N/A    frame=  271 fps= 11 q=24.8 size=N/A time=00:00:05.42 bitrate=N/A    frame=  277 fps= 11 q=24.8 size=N/A time=00:00:05.54 bitrate=N/A    frame=  283 fps= 11 q=24.8 size=N/A time=00:00:05.66 bitrate=N/A    frame=  289 fps= 11 q=24.8 size=N/A time=00:00:05.78 bitrate=N/A    frame=  295 fps= 11 q=24.8 size=N/A time=00:00:05.90 bitrate=N/A    frame=  301 fps= 11 q=24.8 size=N/A time=00:00:06.02 bitrate=N/A    frame=  307 fps= 11 q=24.8 size=N/A time=00:00:06.14 bitrate=N/A    frame=  313 fps= 11 q=24.8 size=N/A time=00:00:06.26 bitrate=N/A    frame=  319 fps= 11 q=24.8 size=N/A time=00:00:06.38 bitrate=N/A    frame=  325 fps= 11 q=24.8 size=N/A time=00:00:06.50 bitrate=N/A    frame=  331 fps= 11 q=24.8 size=N/A time=00:00:06.62 bitrate=N/A    frame=  337 fps= 11 q=24.8 size=N/A time=00:00:06.74 bitrate=N/A    frame=  343 fps= 11 q=24.8 size=N/A time=00:00:06.86 bitrate=N/A    frame=  349 fps= 11 q=24.8 size=N/A time=00:00:06.98 bitrate=N/A    frame=  355 fps= 11 q=24.8 size=N/A time=00:00:07.10 bitrate=N/A    frame=  361 fps= 11 q=24.8 size=N/A time=00:00:07.22 bitrate=N/A    frame=  367 fps= 11 q=24.8 size=N/A time=00:00:07.34 bitrate=N/A    frame=  373 fps= 11 q=24.8 size=N/A time=00:00:07.46 bitrate=N/A    frame=  379 fps= 11 q=24.8 size=N/A time=00:00:07.58 bitrate=N/A    frame=  385 fps= 11 q=24.8 size=N/A time=00:00:07.70 bitrate=N/A    frame=  391 fps= 11 q=24.8 size=N/A time=00:00:07.82 bitrate=N/A    frame=  397 fps= 11 q=24.8 size=N/A time=00:00:07.94 bitrate=N/A    frame=  403 fps= 11 q=24.8 size=N/A time=00:00:08.06 bitrate=N/A    frame=  407 fps= 11 q=24.8 Lsize=N/A time=00:00:08.14 bitrate=N/A    
video:164174kB audio:0kB subtitle:0kB other streams:0kB global headers:0kB muxing overhead: unknown
+ turkic load DJI_0433_ragas_vaskut_20180826_diffuz_napraforgo_T4 /home/horvathandras/vatic/vatic/videos/DJI_0433_ragas_vaskut_20180826_diffuz_napraforgo_T4 $'Pozit\303\255vROI' $'Negat\303\255vROI' $'T\303\272r\303\241s' '~Friss' '~1-2Hetes' '~Régebbi' '~Egyéb1' '~Egyéb2' '~Egyéb3' $'R\303\241g\303\241s' '~Friss' '~1-2Hetes' '~Régebbi' '~Egyéb1' '~Egyéb2' '~Egyéb3' $'T\303\266r\303\251s' '~Friss' '~1-2Hetes' '~Régebbi' '~Egyéb1' '~Egyéb2' '~Egyéb3' $'Tapos\303\241s' '~Friss' '~1-2Hetes' '~Régebbi' '~Egyéb1' '~Egyéb2' '~Egyéb3' $'Eg\303\251szs\303\251gesN\303\266v\303\251ny' $'Egy\303\251b1' $'Egy\303\251b2' $'Egy\303\251b3' $'Egy\303\251b4' $'Egy\303\251b5' Bizonytalan $'M\305\261vel\305\221\303\272t' $'Gktapos\303\241s' $'Vet\305\221hiba' $'Sz\303\251ld\303\266nt\303\251s' $'J\303\251gk\303\241r' $'Belv\303\255z' $'Asz\303\241ly' $'Er\303\263zi\303\263' $'Egyszik\305\261Gyom' $'K\303\251tszik\305\261Gyom' $'Egy\303\251bN\303\266vv\303\251delmiPR' --offline --title '$filenameNoDot Video' --length 1000 --description 'vatic annotation'
+ turkic publish --offline
+ mkdir /home/horvathandras/vatic/vatic/public/videothumbnails/DJI_0433_ragas_vaskut_20180826_diffuz_napraforgo_T4
mkdir: cannot create directory '/home/horvathandras/vatic/vatic/public/videothumbnails/DJI_0433_ragas_vaskut_20180826_diffuz_napraforgo_T4': File exists
+ cp /home/horvathandras/vatic/vatic/videos/DJI_0433_ragas_vaskut_20180826_diffuz_napraforgo_T4/0/0/31.jpg /home/horvathandras/vatic/vatic/public/videothumbnails/DJI_0433_ragas_vaskut_20180826_diffuz_napraforgo_T4/thumb.jpg
